<svg xmlns="http://www.w3.org/2000/svg" viewBox="0 0 654.01 127.72"><defs><style>.cls-1{fill:#010101;}</style></defs><g id="Layer_2" data-name="Layer 2"><g id="Layer_1-2" data-name="Layer 1"><path class="cls-1" d="M0,64.38C0,27.07,27.37,0,68.36,0c19,0,33.24,6.25,42.92,13V47.2H111c-12.75-9-24.37-16-40.34-16-20.5,0-33.41,13-33.41,32.79,0,19.61,12.59,32.45,33.24,32.45,16.14,0,28.24-6.07,40.51-16h.32v34.7c-8.55,5.9-24.2,12.5-44.22,12.5C24.79,127.72,0,101.34,0,64.38Z"/><path class="cls-1" d="M121.6,74.28V73.9c0-28.91,23.66-53.13,56.33-53.13,32.48,0,55.95,23.84,55.95,52.75v.38c0,28.92-23.66,53.14-56.33,53.14C145.07,127,121.6,103.19,121.6,74.28Zm77.54,0V73.9c0-12.39-9-22.9-21.59-22.9-13,0-21.21,10.32-21.21,22.52v.38c0,12.39,9,22.91,21.59,22.91C190.88,96.81,199.14,86.48,199.14,74.28Z"/><path class="cls-1" d="M246.61,8.12H280.5V93.19h52.58l4,31.41H246.61Z"/><path class="cls-1" d="M338.54,74.28V73.9c0-29.66,21.21-53.13,51.25-53.13,35.11,0,51.26,25.72,51.26,55.57,0,2.26,0,4.88-.19,7.32h-68c2.82,11.08,10.89,16.71,22,16.71,8.45,0,15.21-3.19,22.53-10.32l19.72,16.33C427.34,118.78,413.26,127,393,127,361.07,127,338.54,105.82,338.54,74.28Zm69.09-8.83c-1.32-11.26-7.89-18.4-17.65-18.4-9.39,0-15.77,7.32-17.65,18.4Z"/><path class="cls-1" d="M454.24,23h35.67V37.29c6.57-8.45,16-16.52,30.42-16.52,21.59,0,34.54,14.27,34.54,37.36V124.6H519.2v-55c0-11.07-5.82-17.08-14.27-17.08-8.63,0-15,6-15,17.08v55H454.24Z"/><path class="cls-1" d="M564.45,111.83l13.33-21.59c11.65,7.69,24.41,11.64,34.93,11.64,6.19,0,9-1.88,9-5.45v-.37c0-4-5.63-5.64-16.34-8.64-20.09-5.26-36-12-36-32.48v-.38C569.34,33,586.61,21,610.08,21c14.83,0,30.23,4.32,41.87,11.83L639.74,55.31c-10.51-5.82-22-9.38-30-9.38-5.44,0-8.26,2.06-8.26,4.88v.37c0,4,5.82,5.82,16.52,9,20.09,5.64,36,12.59,36,32.3v.38c0,22.34-16.71,34-41.49,34A81.94,81.94,0,0,1,564.45,111.83Z"/><rect class="cls-1" x="417.38" y="90.06" width="19.72" height="16.3"/></g></g></svg>